<?xml version="1.0" encoding="utf-8"?>
<!-- Generator: Adobe Illustrator 26.0.2, SVG Export Plug-In . SVG Version: 6.00 Build 0)  -->
<svg version="1.1" id="Layer_1" xmlns="http://www.w3.org/2000/svg" xmlns:xlink="http://www.w3.org/1999/xlink" x="0px" y="0px"
	 viewBox="0 0 554.81 537.94" style="enable-background:new 0 0 554.81 537.94;" xml:space="preserve">
<style type="text/css">
	.st0{fill:#FFFFFF;stroke:#000000;stroke-miterlimit:10;}
	.st1{fill:#091736;}
	.st2{fill:#F0C515;}
	.st3{fill:none;stroke:#F0C515;stroke-miterlimit:10;}
</style>
<path class="st0" d="M0,253.66"/>
<g>
	
		<ellipse transform="matrix(0.9999 -0.0104 0.0104 0.9999 -2.7191 2.9132)" class="st1" cx="277.71" cy="261.94" rx="257.79" ry="248.34"/>
	<path class="st2" d="M277.42,513.33c-68.57,0-133.19-25.39-182.25-71.68c-49.78-46.97-77.58-109.82-78.29-176.99
		c-0.7-67.17,25.78-130.59,74.58-178.59c48.76-47.97,113.97-74.78,183.62-75.51c0.95-0.01,1.92-0.01,2.86-0.01
		c142.53,0,259.14,110.97,260.58,248.67l0,0c0.7,67.17-25.79,130.59-74.58,178.59c-48.76,47.97-113.98,74.78-183.62,75.51
		C279.36,513.32,278.39,513.33,277.42,513.33z M277.95,16.64c-0.94,0-1.86,0.01-2.8,0.01c-68.06,0.71-131.78,26.91-179.41,73.76
		C48.14,137.24,22.3,199.1,22.98,264.6s27.81,126.8,76.38,172.62c48.6,45.85,113.01,70.91,180.91,70
		c68.06-0.71,131.78-26.91,179.41-73.76c47.6-46.82,73.44-108.69,72.76-174.18l0,0C531.03,124.94,417.12,16.64,277.95,16.64z"/>
</g>
<ellipse transform="matrix(0.9999 -0.0104 0.0104 0.9999 -2.2442 3.8728)" class="st2" cx="369.87" cy="216.92" rx="52.07" ry="54.37"/>
<path class="st2" d="M347.94,280.3c-19.07,0.2-43.02-5.18-71.92-21.82c-103.22-59.46-199.86,1.43-200.83,2.05l-0.18-5.24
	c0.99-0.65,97.54-63.46,204.05-2.09c80.88,46.59,118.86,2.6,120.43,0.69l4.7,3.88C403.92,258.11,385.31,279.91,347.94,280.3z"/>
<path class="st3" d="M368.42,326.58"/>
<path class="st2" d="M456.24,283.97c14.19-19.02,21.85-42.25,21.61-65.83c-0.62-59.66-48.69-107.77-107.39-107.77
	c-0.37,0-0.75,0-1.12,0.01c-57.79,0.6-104.43,46.92-106.2,105.45l6.09,0.18c1.67-55.25,45.66-98.97,100.16-99.54
	c0.36,0,0.71-0.01,1.07-0.01c55.36,0,100.71,45.42,101.29,101.74c0.24,23.15-7.59,45.95-22.04,64.29
	c-11.63,13.85-77.12,83.86-169.99,27.48c-104.5-63.45-203.1-0.35-204.13,0.32l0.21,6.97c0.99-0.65,99.6-63.52,200.76-2.08
	c27.13,16.48,52.17,22.44,74.42,22.21c55.68-0.59,93.79-40.01,103.12-50.71"/>
<path class="st2" d="M456.05,345.57c0,0-71.69,93.6-175.76,30.4s-204,2.13-204,2.13l-0.18-16.87c0,0,99.93-65.32,204-2.13
	s175.76-30.4,175.76-30.4L456.05,345.57z"/>
</svg>
